<svg xmlns="http://www.w3.org/2000/svg" xmlns:xlink="http://www.w3.org/1999/xlink" width="1920" zoomAndPan="magnify" viewBox="0 0 1440 809.999993" height="1080" preserveAspectRatio="xMidYMid meet" version="1.0"><defs><clipPath id="6a522306c2"><path d="M 328 11 L 1114.90625 11 L 1114.90625 810 L 328 810 Z M 328 11 " clip-rule="nonzero"/></clipPath><clipPath id="f2bc5facc0"><path d="M 770 486 L 1024.238281 486 L 1024.238281 809 L 770 809 Z M 770 486 " clip-rule="nonzero"/></clipPath></defs><g clip-path="url(#6a522306c2)"><path fill="#ECB159" d="M 1474.640625 472.101562 C 1448.546875 418.054688 1385.179688 382.644531 1321.8125 388.234375 C 1278.949219 391.960938 1239.808594 412.464844 1208.128906 449.738281 C 1178.308594 485.148438 1163.398438 524.285156 1157.808594 539.195312 C 1139.167969 595.109375 1144.761719 669.65625 1155.941406 736.75 C 1148.488281 723.707031 1141.035156 708.796875 1133.578125 693.886719 C 1101.894531 637.972656 1068.347656 593.246094 1031.074219 555.96875 C 988.207031 513.105469 941.613281 485.148438 893.15625 472.101562 C 889.429688 434.828125 876.382812 296.914062 826.0625 203.726562 C 757.105469 67.675781 598.691406 13.625 591.234375 11.761719 C 587.507812 9.898438 581.917969 11.761719 578.1875 15.492188 C 574.460938 19.21875 574.460938 24.808594 576.324219 28.535156 C 585.644531 45.308594 604.28125 97.496094 587.507812 123.585938 C 581.917969 131.042969 572.597656 134.769531 555.824219 140.359375 C 522.277344 151.542969 473.820312 166.453125 447.726562 263.367188 C 440.273438 295.050781 399.269531 309.957031 365.722656 319.277344 C 348.949219 324.867188 335.90625 337.914062 332.175781 356.550781 C 315.402344 432.964844 354.542969 459.058594 389.953125 487.011719 C 393.679688 488.875 397.40625 492.605469 401.136719 494.46875 C 438.410156 522.421875 470.09375 522.421875 498.046875 524.285156 C 520.414062 524.285156 537.1875 526.152344 553.960938 537.332031 C 591.234375 563.425781 587.507812 619.335938 581.917969 688.292969 C 576.324219 770.296875 568.871094 870.941406 628.507812 967.851562 C 639.691406 988.355469 650.875 999.535156 660.191406 1008.855469 C 673.238281 1021.902344 684.421875 1033.082031 695.601562 1062.902344 C 716.105469 1113.222656 719.832031 1299.597656 716.105469 1316.371094 C 712.375 1325.6875 697.46875 1329.414062 682.558594 1335.007812 C 660.191406 1342.460938 630.371094 1351.78125 626.644531 1381.601562 C 624.78125 1398.375 626.644531 1409.554688 634.101562 1418.875 C 645.28125 1431.921875 665.785156 1431.921875 684.421875 1431.921875 C 688.148438 1431.921875 693.738281 1431.921875 697.46875 1431.921875 C 777.605469 1435.648438 827.925781 1433.785156 835.382812 1433.785156 C 870.792969 1437.511719 911.796875 1441.238281 952.796875 1441.238281 C 1038.527344 1441.238281 1129.851562 1431.921875 1196.945312 1415.148438 C 1241.675781 1403.964844 1275.222656 1372.28125 1297.585938 1321.960938 C 1314.359375 1282.824219 1325.542969 1230.636719 1329.269531 1169.136719 C 1334.859375 1042.402344 1308.769531 921.261719 1308.769531 919.394531 C 1301.3125 882.121094 1291.996094 846.710938 1282.675781 813.164062 C 1262.175781 729.296875 1243.539062 656.613281 1249.128906 598.835938 C 1252.855469 554.105469 1269.628906 498.195312 1321.8125 483.285156 C 1359.089844 472.101562 1383.316406 488.875 1396.363281 505.648438 C 1401.953125 513.105469 1407.546875 524.285156 1413.136719 537.332031 C 1420.589844 554.105469 1435.5 561.5625 1454.140625 557.832031 C 1470.914062 554.105469 1482.09375 539.195312 1482.09375 522.421875 C 1485.820312 503.785156 1480.230469 487.011719 1474.640625 472.101562 Z M 1452.273438 533.605469 C 1450.410156 533.605469 1442.957031 535.46875 1439.230469 526.152344 C 1433.636719 511.242188 1426.183594 498.195312 1418.726562 488.875 C 1394.5 457.191406 1359.089844 446.011719 1318.085938 457.191406 C 1267.765625 472.101562 1236.082031 520.558594 1228.628906 593.246094 C 1223.035156 654.746094 1241.675781 729.296875 1262.175781 815.027344 C 1271.492188 848.574219 1278.949219 883.984375 1288.265625 921.261719 C 1288.265625 923.125 1314.359375 1040.539062 1308.769531 1163.542969 C 1305.039062 1223.183594 1295.722656 1271.640625 1278.949219 1308.914062 C 1260.3125 1351.78125 1230.492188 1377.871094 1193.21875 1389.054688 C 1098.167969 1413.285156 950.933594 1420.738281 840.972656 1407.691406 C 833.519531 1402.101562 820.472656 1376.007812 822.335938 1364.828125 C 826.0625 1355.507812 855.882812 1351.78125 878.25 1349.917969 C 911.796875 1346.1875 949.070312 1342.460938 958.386719 1318.234375 C 965.84375 1297.730469 950.933594 1279.09375 934.160156 1260.457031 C 917.386719 1241.820312 896.886719 1219.457031 889.429688 1187.773438 C 876.382812 1137.453125 878.25 1042.402344 967.707031 1010.71875 C 1008.707031 995.808594 1053.4375 997.671875 1090.710938 1016.308594 C 1124.257812 1033.082031 1146.625 1062.902344 1155.941406 1100.179688 C 1157.804688 1105.769531 1163.398438 1111.359375 1170.851562 1109.496094 C 1176.445312 1107.632812 1182.035156 1102.042969 1180.171875 1094.585938 C 1168.988281 1051.722656 1141.03125 1016.308594 1101.894531 995.808594 C 1059.027344 973.445312 1008.707031 971.582031 960.25 988.355469 C 915.523438 1005.128906 885.703125 1036.8125 870.792969 1081.539062 C 859.609375 1115.085938 857.746094 1157.953125 868.929688 1195.226562 C 878.25 1232.5 902.476562 1258.59375 919.25 1277.230469 C 932.296875 1290.277344 941.613281 1301.460938 939.75 1308.914062 C 936.023438 1320.097656 904.339844 1323.824219 880.113281 1325.6875 C 844.699219 1329.414062 811.152344 1333.144531 803.699219 1357.371094 C 798.109375 1374.144531 809.289062 1396.507812 814.882812 1407.691406 C 792.515625 1407.691406 753.378906 1407.691406 703.058594 1405.828125 C 697.46875 1405.828125 693.738281 1405.828125 688.148438 1405.828125 C 675.101562 1405.828125 660.191406 1405.828125 654.601562 1400.238281 C 650.875 1396.507812 650.875 1387.191406 652.738281 1381.601562 C 654.601562 1366.691406 667.648438 1361.097656 691.875 1355.507812 C 710.511719 1349.917969 732.878906 1342.460938 740.332031 1323.824219 C 747.789062 1308.914062 742.195312 1202.683594 742.195312 1202.683594 C 740.332031 1159.816406 734.742188 1085.269531 721.695312 1053.585938 C 708.648438 1018.171875 695.601562 1005.128906 680.695312 992.082031 C 671.375 982.761719 662.054688 973.445312 650.875 954.808594 C 596.824219 865.347656 602.417969 772.160156 608.007812 690.160156 C 613.597656 615.609375 617.328125 552.242188 570.734375 518.695312 C 546.503906 501.921875 524.140625 500.058594 499.914062 500.058594 C 473.820312 500.058594 447.726562 498.195312 417.910156 475.828125 C 414.179688 473.964844 410.453125 470.238281 406.726562 468.375 C 371.316406 444.148438 345.222656 423.644531 358.269531 364.007812 C 360.132812 354.6875 367.585938 347.234375 375.042969 345.371094 C 416.042969 334.1875 462.636719 315.550781 473.820312 272.683594 C 496.183594 188.816406 535.324219 175.769531 565.140625 166.453125 C 581.917969 160.859375 598.691406 155.269531 608.007812 140.359375 C 624.78125 114.269531 617.328125 75.128906 608.007812 49.039062 C 654.601562 69.539062 753.378906 123.585938 803.699219 216.773438 C 861.472656 315.550781 870.792969 479.558594 870.792969 481.421875 C 870.792969 487.011719 874.519531 490.738281 880.113281 492.605469 C 986.34375 516.832031 1064.621094 621.199219 1113.078125 705.066406 C 1159.671875 785.207031 1185.761719 861.621094 1191.355469 880.257812 C 1191.355469 882.121094 1193.21875 883.984375 1193.21875 883.984375 C 1193.21875 885.847656 1208.128906 934.304688 1211.855469 995.808594 C 1211.855469 1001.398438 1217.445312 1006.992188 1223.035156 1006.992188 C 1230.492188 1006.992188 1234.21875 1001.398438 1234.21875 993.945312 C 1230.492188 926.851562 1215.582031 878.394531 1213.71875 876.53125 C 1213.71875 876.53125 1213.71875 874.667969 1211.855469 872.804688 C 1206.261719 842.984375 1148.488281 651.019531 1182.035156 544.789062 C 1185.761719 531.742188 1224.902344 418.054688 1323.679688 412.464844 C 1375.863281 408.734375 1429.910156 438.554688 1452.273438 483.285156 C 1457.867188 494.46875 1461.59375 507.511719 1461.59375 522.421875 C 1461.59375 529.878906 1456.003906 531.742188 1452.273438 533.605469 Z M 1452.273438 533.605469 " fill-opacity="1" fill-rule="nonzero"/></g><g clip-path="url(#f2bc5facc0)"><path fill="#ECB159" d="M 897.230469 486 C 827.230469 486 770.398438 542.832031 770.398438 612.832031 C 770.398438 644.863281 789.46875 682.949219 813.046875 716.824219 C 846.933594 765.527344 889.296875 805.6875 889.296875 805.6875 C 893.746094 809.894531 900.710938 809.894531 905.160156 805.6875 C 905.160156 805.6875 947.523438 765.527344 981.410156 716.824219 C 1004.992188 682.949219 1024.0625 644.863281 1024.0625 612.832031 C 1024.0625 542.832031 967.230469 486 897.230469 486 Z M 897.230469 509.058594 C 954.5 509.058594 1001 555.5625 1001 612.832031 C 1001 640.945312 983.175781 673.921875 962.480469 703.65625 C 938.738281 737.773438 910.660156 767.535156 897.230469 781.117188 C 883.796875 767.535156 855.71875 737.773438 831.980469 703.65625 C 811.28125 673.921875 793.457031 640.945312 793.457031 612.832031 C 793.457031 555.5625 839.957031 509.058594 897.230469 509.058594 Z M 897.230469 549.417969 C 862.222656 549.417969 833.8125 577.828125 833.8125 612.832031 C 833.8125 647.839844 862.222656 676.25 897.230469 676.25 C 932.234375 676.25 960.644531 647.839844 960.644531 612.832031 C 960.644531 577.828125 932.234375 549.417969 897.230469 549.417969 Z M 897.230469 572.476562 C 919.503906 572.476562 937.585938 590.554688 937.585938 612.832031 C 937.585938 635.109375 919.503906 653.1875 897.230469 653.1875 C 874.953125 653.1875 856.875 635.109375 856.875 612.832031 C 856.875 590.554688 874.953125 572.476562 897.230469 572.476562 Z M 897.230469 572.476562 " fill-opacity="1" fill-rule="evenodd"/></g></svg>