<svg xmlns="http://www.w3.org/2000/svg" xmlns:xlink="http://www.w3.org/1999/xlink" width="1920" zoomAndPan="magnify" viewBox="0 0 1440 809.999993" height="1080" preserveAspectRatio="xMidYMid meet" version="1.0"><defs><clipPath id="6783b4dac4"><path d="M 444 18.007812 L 1070 18.007812 L 1070 792.007812 L 444 792.007812 Z M 444 18.007812 " clip-rule="nonzero"/></clipPath></defs><g clip-path="url(#6783b4dac4)"><path fill="#B67352" d="M 1064.367188 267.945312 C 1050.257812 238.71875 1015.988281 219.570312 981.722656 222.59375 C 958.542969 224.609375 937.375 235.695312 920.242188 255.851562 C 904.117188 275 896.054688 296.164062 893.027344 304.226562 C 882.949219 334.460938 885.972656 374.773438 892.019531 411.054688 C 887.988281 404 883.957031 395.9375 879.925781 387.875 C 862.792969 357.640625 844.652344 333.453125 824.492188 313.296875 C 801.3125 290.117188 776.117188 275 749.910156 267.945312 C 747.894531 247.789062 740.839844 173.210938 713.628906 122.820312 C 676.335938 49.25 590.667969 20.023438 586.636719 19.015625 C 584.621094 18.007812 581.597656 19.015625 579.578125 21.03125 C 577.5625 23.046875 577.5625 26.070312 578.570312 28.085938 C 583.613281 37.15625 593.691406 65.375 584.621094 79.484375 C 581.597656 83.515625 576.554688 85.53125 567.484375 88.554688 C 549.34375 94.601562 523.140625 102.664062 509.027344 155.070312 C 504.996094 172.203125 482.824219 180.265625 464.683594 185.304688 C 455.613281 188.328125 448.554688 195.382812 446.539062 205.460938 C 437.46875 246.78125 458.636719 260.890625 477.785156 276.007812 C 479.800781 277.015625 481.816406 279.03125 483.832031 280.039062 C 503.988281 295.15625 521.125 295.15625 536.242188 296.164062 C 548.335938 296.164062 557.40625 297.171875 566.476562 303.21875 C 586.636719 317.328125 584.621094 347.5625 581.597656 384.851562 C 578.570312 429.195312 574.539062 483.617188 606.792969 536.023438 C 612.839844 547.109375 618.886719 553.15625 623.925781 558.195312 C 630.980469 565.25 637.027344 571.296875 643.078125 587.421875 C 654.164062 614.632812 656.179688 715.414062 654.164062 724.484375 C 652.148438 729.523438 644.085938 731.539062 636.019531 734.5625 C 623.925781 738.59375 607.800781 743.632812 605.785156 759.757812 C 604.777344 768.828125 605.785156 774.875 609.816406 779.914062 C 615.863281 786.96875 626.949219 786.96875 637.027344 786.96875 C 639.042969 786.96875 642.066406 786.96875 644.085938 786.96875 C 687.421875 788.984375 714.636719 787.976562 718.667969 787.976562 C 737.816406 789.992188 759.988281 792.007812 782.164062 792.007812 C 828.523438 792.007812 877.910156 786.96875 914.195312 777.898438 C 938.382812 771.851562 956.523438 754.71875 968.621094 727.507812 C 977.691406 706.34375 983.738281 678.125 985.753906 644.867188 C 988.777344 576.335938 974.667969 510.828125 974.667969 509.820312 C 970.636719 489.664062 965.597656 470.515625 960.558594 452.375 C 949.46875 407.023438 939.390625 367.71875 942.414062 336.476562 C 944.429688 312.289062 953.5 282.054688 981.722656 273.992188 C 1001.878906 267.945312 1014.980469 277.015625 1022.039062 286.085938 C 1025.0625 290.117188 1028.085938 296.164062 1031.109375 303.21875 C 1035.140625 312.289062 1043.203125 316.320312 1053.28125 314.304688 C 1062.351562 312.289062 1068.398438 304.226562 1068.398438 295.15625 C 1070.414062 285.078125 1067.390625 276.007812 1064.367188 267.945312 Z M 1052.273438 301.203125 C 1051.265625 301.203125 1047.234375 302.210938 1045.21875 297.171875 C 1042.195312 289.109375 1038.164062 282.054688 1034.132812 277.015625 C 1021.03125 259.882812 1001.878906 253.835938 979.707031 259.882812 C 952.492188 267.945312 935.359375 294.148438 931.328125 333.453125 C 928.304688 366.710938 938.382812 407.023438 949.46875 453.382812 C 954.507812 471.523438 958.542969 490.671875 963.582031 510.828125 C 963.582031 511.835938 977.691406 575.328125 974.667969 641.84375 C 972.652344 674.09375 967.613281 700.296875 958.542969 720.453125 C 948.460938 743.632812 932.335938 757.742188 912.179688 763.789062 C 860.777344 776.890625 781.15625 780.921875 721.691406 773.867188 C 717.660156 770.84375 710.605469 756.734375 711.613281 750.6875 C 713.628906 745.648438 729.753906 743.632812 741.847656 742.625 C 759.988281 740.609375 780.148438 738.59375 785.1875 725.492188 C 789.21875 714.40625 781.15625 704.328125 772.085938 694.25 C 763.011719 684.171875 751.925781 672.078125 747.894531 654.945312 C 740.839844 627.734375 741.847656 576.335938 790.226562 559.203125 C 812.398438 551.140625 836.589844 552.148438 856.746094 562.226562 C 874.886719 571.296875 886.980469 587.421875 892.019531 607.578125 C 893.027344 610.601562 896.054688 613.625 900.085938 612.617188 C 903.109375 611.609375 906.132812 608.585938 905.125 604.554688 C 899.078125 581.375 883.957031 562.226562 862.792969 551.140625 C 839.613281 539.046875 812.398438 538.039062 786.195312 547.109375 C 762.003906 556.179688 745.878906 573.3125 737.816406 597.5 C 731.769531 615.640625 730.761719 638.820312 736.808594 658.976562 C 741.847656 679.132812 754.949219 693.242188 764.019531 703.320312 C 771.078125 710.375 776.117188 716.421875 775.109375 720.453125 C 773.09375 726.5 755.957031 728.515625 742.855469 729.523438 C 723.707031 731.539062 705.5625 733.554688 701.53125 746.65625 C 698.507812 755.726562 704.554688 767.820312 707.582031 773.867188 C 695.484375 773.867188 674.320312 773.867188 647.109375 772.859375 C 644.085938 772.859375 642.066406 772.859375 639.042969 772.859375 C 631.988281 772.859375 623.925781 772.859375 620.902344 769.835938 C 618.886719 767.820312 618.886719 762.78125 619.894531 759.757812 C 620.902344 751.695312 627.957031 748.671875 641.058594 745.648438 C 651.140625 742.625 663.234375 738.59375 667.265625 728.515625 C 671.296875 720.453125 668.273438 663.007812 668.273438 663.007812 C 667.265625 639.828125 664.242188 599.515625 657.1875 582.382812 C 650.132812 563.234375 643.074219 556.179688 635.011719 549.125 C 629.972656 544.085938 624.933594 539.046875 618.886719 528.96875 C 589.660156 480.59375 592.683594 430.203125 595.707031 385.859375 C 598.730469 345.546875 600.746094 311.28125 575.546875 293.140625 C 562.445312 284.070312 550.351562 283.0625 537.25 283.0625 C 523.140625 283.0625 509.027344 282.054688 492.902344 269.960938 C 490.886719 268.953125 488.871094 266.9375 486.855469 265.929688 C 467.707031 252.828125 453.59375 241.742188 460.652344 209.492188 C 461.660156 204.453125 465.691406 200.421875 469.722656 199.414062 C 491.894531 193.367188 517.09375 183.289062 523.140625 160.109375 C 535.234375 114.757812 556.398438 107.703125 572.523438 102.664062 C 581.597656 99.640625 590.667969 96.617188 595.707031 88.554688 C 604.777344 74.445312 600.746094 53.28125 595.707031 39.171875 C 620.902344 50.257812 674.320312 79.484375 701.53125 129.875 C 732.777344 183.289062 737.816406 271.976562 737.816406 272.984375 C 737.816406 276.007812 739.832031 278.023438 742.855469 279.03125 C 800.304688 292.132812 842.636719 348.570312 868.839844 393.921875 C 894.035156 437.257812 908.148438 478.578125 911.171875 488.65625 C 911.171875 489.664062 912.179688 490.671875 912.179688 490.671875 C 912.179688 491.679688 920.242188 517.882812 922.257812 551.140625 C 922.257812 554.164062 925.28125 557.1875 928.304688 557.1875 C 932.335938 557.1875 934.351562 554.164062 934.351562 550.132812 C 932.335938 513.851562 924.273438 487.648438 923.265625 486.640625 C 923.265625 486.640625 923.265625 485.632812 922.257812 484.625 C 919.234375 468.5 887.988281 364.695312 906.132812 307.25 C 908.148438 300.195312 929.3125 238.71875 982.730469 235.695312 C 1010.949219 233.679688 1040.179688 249.804688 1052.273438 273.992188 C 1055.296875 280.039062 1057.3125 287.09375 1057.3125 295.15625 C 1057.3125 299.1875 1054.289062 300.195312 1052.273438 301.203125 Z M 1052.273438 301.203125 " fill-opacity="1" fill-rule="nonzero"/></g></svg>