<svg xmlns="http://www.w3.org/2000/svg" xmlns:xlink="http://www.w3.org/1999/xlink" width="1920" zoomAndPan="magnify" viewBox="0 0 1440 809.999993" height="1080" preserveAspectRatio="xMidYMid meet" version="1.0"><defs><clipPath id="cc5c0301f1"><path d="M 332 3 L 1109.195312 3 L 1109.195312 802 L 332 802 Z M 332 3 " clip-rule="nonzero"/></clipPath></defs><g clip-path="url(#cc5c0301f1)"><path fill="#B67352" d="M 1109.195312 351.671875 C 1109.195312 350.605469 1107.0625 332.472656 1094.261719 314.339844 C 1082.53125 297.273438 1059.070312 277.011719 1013.214844 277.011719 C 1013.214844 277.011719 1013.214844 277.011719 1012.148438 277.011719 C 940.695312 277.011719 906.570312 325.007812 898.039062 339.9375 C 882.042969 366.601562 877.777344 397.535156 886.308594 430.597656 C 886.308594 430.597656 886.308594 431.664062 886.308594 431.664062 C 832.984375 366.601562 771.132812 288.742188 757.269531 234.347656 C 754.070312 219.414062 753.003906 200.214844 753.003906 179.949219 C 751.9375 131.953125 749.804688 71.160156 701.8125 34.894531 C 683.683594 21.03125 652.757812 9.296875 622.898438 5.03125 C 597.304688 1.832031 559.976562 0.765625 527.984375 19.964844 C 486.394531 45.5625 459.734375 104.222656 453.335938 120.222656 L 358.421875 130.886719 C 345.625 131.953125 334.960938 142.621094 333.894531 155.417969 C 330.695312 189.550781 334.960938 198.082031 336.027344 201.28125 C 347.757812 226.878906 381.882812 268.476562 426.671875 275.945312 C 452.269531 281.277344 478.929688 279.144531 502.390625 278.078125 C 537.582031 275.945312 557.84375 275.945312 561.042969 289.808594 C 562.109375 296.207031 555.710938 305.808594 548.246094 318.605469 C 533.316406 343.136719 509.855469 381.535156 515.1875 442.332031 C 517.320312 460.460938 527.984375 480.726562 539.714844 500.992188 C 554.644531 526.589844 569.574219 552.1875 570.640625 580.984375 C 571.707031 634.316406 546.113281 714.308594 539.714844 733.507812 C 527.984375 734.574219 497.058594 739.90625 485.328125 754.839844 C 481.0625 760.171875 479.996094 766.570312 481.0625 772.972656 C 484.261719 784.703125 493.859375 793.234375 506.65625 793.234375 L 661.289062 793.234375 C 668.753906 794.300781 744.472656 801.769531 823.386719 801.769531 C 891.640625 801.769531 963.089844 795.371094 995.085938 774.039062 C 1034.542969 747.375 1071.867188 651.378906 1072.933594 605.515625 C 1074 580.984375 1063.335938 552.1875 1053.738281 522.324219 C 1038.808594 480.726562 1022.8125 433.796875 1031.34375 390.066406 C 1034.542969 376.203125 1040.941406 365.535156 1050.539062 360.203125 C 1070.800781 348.472656 1099.597656 358.070312 1100.664062 358.070312 C 1102.796875 359.136719 1104.929688 358.070312 1107.0625 357.003906 C 1108.128906 355.9375 1109.195312 353.804688 1109.195312 351.671875 Z M 740.207031 181.019531 C 740.207031 187.417969 740.207031 192.75 741.273438 199.148438 C 739.140625 211.949219 730.609375 269.542969 739.140625 285.542969 C 759.402344 323.941406 764.734375 357.003906 753.003906 383.667969 C 742.339844 410.332031 717.8125 423.132812 706.078125 427.398438 C 679.417969 434.863281 658.089844 434.863281 642.09375 425.265625 C 627.164062 416.730469 616.5 399.667969 611.167969 374.070312 C 603.703125 339.9375 603.703125 264.210938 606.902344 203.414062 C 615.433594 62.625 641.027344 29.5625 648.492188 24.230469 C 666.621094 29.5625 682.617188 37.027344 694.347656 45.5625 C 737.007812 78.625 738.074219 133.019531 740.207031 181.019531 Z M 1044.140625 349.539062 C 1030.277344 357.003906 1021.746094 370.871094 1018.546875 389 C 1008.949219 435.929688 1026.011719 484.992188 1040.941406 527.65625 C 1051.605469 556.453125 1061.203125 584.1875 1060.136719 606.585938 C 1059.070312 627.914062 1049.472656 662.046875 1036.675781 692.976562 C 1021.746094 727.109375 1003.617188 753.773438 987.621094 764.4375 C 921.5 809.234375 664.488281 781.503906 662.355469 781.503906 C 657.023438 781.503906 641.027344 778.304688 635.695312 770.835938 C 634.628906 768.703125 633.5625 766.570312 634.628906 761.238281 C 636.761719 753.773438 660.222656 753.773438 677.285156 752.707031 C 698.613281 752.707031 718.878906 751.640625 728.476562 742.039062 C 742.339844 727.109375 737.007812 708.976562 730.609375 687.644531 C 721.011719 654.582031 710.347656 615.117188 755.136719 566.054688 C 762.601562 558.585938 789.261719 541.523438 799.925781 535.121094 C 803.125 532.988281 804.191406 529.789062 802.058594 526.589844 C 799.925781 523.390625 796.726562 522.324219 793.527344 524.457031 C 789.261719 526.589844 756.203125 546.855469 746.605469 557.519531 C 696.480469 611.917969 709.28125 657.78125 718.878906 691.910156 C 725.277344 713.242188 727.410156 726.042969 719.945312 734.574219 C 714.613281 739.90625 694.347656 740.972656 678.351562 740.972656 C 652.757812 742.039062 628.230469 742.039062 622.898438 758.039062 C 619.699219 767.636719 621.832031 775.105469 625.03125 779.371094 C 626.097656 780.4375 626.097656 781.503906 627.164062 782.570312 L 506.65625 782.570312 C 500.257812 782.570312 494.925781 778.304688 493.859375 772.972656 C 492.792969 769.769531 493.859375 767.636719 494.925781 765.503906 C 502.390625 755.90625 529.050781 749.507812 543.980469 748.441406 C 546.113281 748.441406 549.3125 746.304688 549.3125 744.171875 C 550.378906 739.90625 583.441406 644.980469 581.308594 585.253906 C 580.242188 554.320312 563.175781 525.523438 549.3125 499.925781 C 537.582031 480.726562 526.917969 461.527344 525.851562 446.597656 C 520.519531 390.066406 541.847656 355.9375 556.777344 330.339844 C 565.308594 315.40625 572.773438 303.675781 570.640625 293.007812 C 568.507812 280.210938 559.976562 272.742188 545.046875 270.609375 C 533.316406 268.476562 517.320312 269.542969 499.191406 270.609375 C 476.796875 271.675781 451.203125 272.742188 426.671875 268.476562 C 387.214844 261.011719 356.289062 222.613281 345.625 200.214844 C 344.558594 198.082031 342.425781 189.550781 344.558594 160.753906 C 345.625 154.351562 349.890625 149.019531 357.355469 147.953125 L 455.46875 137.289062 C 457.601562 137.289062 459.734375 135.15625 460.800781 133.019531 C 460.800781 131.953125 488.527344 61.558594 532.25 34.894531 C 554.644531 21.03125 584.507812 16.761719 618.632812 21.03125 C 622.898438 22.097656 627.164062 22.097656 631.429688 23.164062 C 618.632812 40.226562 598.371094 85.023438 590.90625 205.546875 C 587.707031 263.144531 586.640625 342.070312 595.171875 380.46875 C 601.570312 410.332031 614.367188 429.53125 632.496094 440.195312 C 643.160156 446.597656 654.890625 448.730469 668.753906 448.730469 C 680.484375 448.730469 692.214844 446.597656 706.078125 442.332031 C 719.945312 438.0625 748.738281 423.132812 761.535156 391.132812 C 774.332031 360.203125 769 323.941406 746.605469 281.277344 C 744.472656 277.011719 743.40625 264.210938 744.472656 249.277344 C 765.800781 310.074219 831.917969 391.132812 886.308594 456.195312 C 904.4375 477.527344 921.5 498.859375 933.230469 514.859375 C 971.625 566.054688 980.15625 615.117188 980.15625 647.113281 C 980.15625 682.3125 970.558594 704.710938 970.558594 704.710938 C 969.492188 707.910156 970.558594 712.175781 973.757812 713.242188 C 976.957031 714.308594 981.222656 713.242188 982.289062 710.042969 C 982.289062 708.976562 992.953125 685.511719 992.953125 648.179688 C 992.953125 614.050781 984.421875 561.789062 943.894531 507.390625 C 934.296875 495.660156 923.632812 480.726562 910.835938 465.796875 C 907.636719 461.527344 874.578125 402.867188 906.570312 347.402344 C 914.035156 334.605469 944.960938 290.875 1008.949219 290.875 C 1008.949219 290.875 1008.949219 290.875 1010.015625 290.875 C 1067.601562 290.875 1085.730469 327.140625 1091.0625 345.269531 C 1082.53125 341.003906 1061.203125 339.9375 1044.140625 349.539062 Z M 1044.140625 349.539062 " fill-opacity="1" fill-rule="nonzero"/></g></svg>