<svg xmlns="http://www.w3.org/2000/svg" xmlns:xlink="http://www.w3.org/1999/xlink" width="1920" zoomAndPan="magnify" viewBox="0 0 1440 809.999993" height="1080" preserveAspectRatio="xMidYMid meet" version="1.0"><defs><clipPath id="0ea8860a6e"><path d="M 357.789062 12.890625 L 965 12.890625 L 965 797.390625 L 357.789062 797.390625 Z M 357.789062 12.890625 " clip-rule="nonzero"/></clipPath></defs><g clip-path="url(#0ea8860a6e)"><path fill="#ECB159" d="M 445.167969 27.199219 L 506.160156 27.199219 C 506.910156 18.914062 514.0625 12.890625 522.347656 12.890625 L 799.4375 12.890625 C 807.71875 12.890625 814.871094 19.292969 815.246094 27.199219 L 876.613281 27.199219 C 900.707031 27.199219 922.167969 37.363281 938.355469 52.796875 C 954.167969 68.609375 963.957031 90.445312 963.957031 114.539062 L 963.957031 187.203125 L 934.96875 204.144531 L 934.96875 114.917969 C 934.96875 99.105469 928.566406 84.046875 917.652344 73.882812 C 907.484375 63.339844 892.425781 56.5625 876.613281 56.5625 L 815.246094 56.5625 C 814.496094 64.84375 807.34375 71.246094 799.4375 71.246094 L 522.347656 71.246094 C 514.0625 71.246094 506.910156 64.84375 506.160156 56.5625 L 445.167969 56.5625 C 429.355469 56.5625 414.296875 62.964844 403.753906 73.882812 C 393.589844 84.046875 386.8125 99.105469 386.8125 114.917969 L 386.8125 710.132812 C 386.8125 725.945312 393.214844 741.003906 403.753906 751.167969 C 414.296875 761.710938 428.980469 768.484375 445.167969 768.484375 L 876.992188 768.484375 C 892.804688 768.484375 907.863281 762.085938 918.027344 751.167969 C 928.566406 741.003906 935.34375 725.945312 935.34375 710.132812 L 935.34375 342.6875 L 964.332031 325.746094 L 964.332031 709.753906 C 964.332031 733.851562 954.167969 755.6875 938.734375 771.496094 C 922.921875 787.308594 901.085938 797.097656 876.992188 797.097656 L 445.167969 797.097656 C 421.074219 797.097656 399.238281 786.933594 383.425781 771.496094 C 367.613281 755.6875 357.824219 733.851562 357.824219 709.753906 L 357.824219 114.539062 C 357.824219 90.445312 367.613281 68.988281 383.425781 52.796875 C 399.238281 36.984375 421.074219 27.199219 445.167969 27.199219 Z M 445.167969 27.199219 " fill-opacity="1" fill-rule="nonzero"/></g><path fill="#ECB159" d="M 481.3125 434.546875 C 476.792969 430.40625 476.792969 423.628906 481.3125 419.488281 C 485.453125 414.972656 492.226562 414.972656 496.371094 419.488281 L 515.945312 439.066406 L 553.972656 373.558594 C 556.605469 368.664062 563.382812 366.78125 568.652344 369.792969 C 573.546875 372.429688 575.429688 379.207031 572.417969 384.476562 L 528.371094 461.277344 C 527.617188 462.03125 527.242188 463.160156 526.113281 463.914062 C 521.96875 468.054688 515.195312 468.054688 511.050781 463.914062 L 481.3125 434.171875 Z M 481.3125 434.546875 " fill-opacity="1" fill-rule="nonzero"/><path fill="#ECB159" d="M 611.949219 433.796875 C 605.925781 433.796875 601.40625 429.277344 601.40625 423.253906 C 601.40625 417.230469 605.925781 412.710938 611.949219 412.710938 L 833.695312 412.710938 C 839.71875 412.710938 844.238281 417.230469 844.238281 423.253906 C 844.238281 429.277344 839.71875 433.796875 833.695312 433.796875 Z M 611.949219 433.796875 " fill-opacity="1" fill-rule="nonzero"/><path fill="#ECB159" d="M 481.3125 546.363281 C 476.792969 542.222656 476.792969 535.445312 481.3125 531.304688 C 485.453125 526.785156 492.226562 526.785156 496.371094 531.304688 L 515.945312 550.878906 L 553.972656 485.375 C 556.605469 480.480469 563.382812 478.597656 568.652344 481.609375 C 573.546875 484.242188 575.429688 491.019531 572.417969 496.292969 L 528.371094 573.09375 C 527.617188 573.847656 527.242188 574.976562 526.113281 575.726562 C 521.96875 579.871094 515.195312 579.871094 511.050781 575.726562 L 481.3125 545.988281 Z M 481.3125 546.363281 " fill-opacity="1" fill-rule="nonzero"/><path fill="#ECB159" d="M 611.949219 545.609375 C 605.925781 545.609375 601.40625 541.09375 601.40625 535.070312 C 601.40625 529.046875 605.925781 524.527344 611.949219 524.527344 L 833.695312 524.527344 C 839.71875 524.527344 844.238281 529.046875 844.238281 535.070312 C 844.238281 541.09375 839.71875 545.609375 833.695312 545.609375 Z M 611.949219 545.609375 " fill-opacity="1" fill-rule="nonzero"/><path fill="#ECB159" d="M 481.3125 658.175781 C 476.792969 654.035156 476.792969 647.257812 481.3125 643.117188 C 485.453125 638.601562 492.226562 638.601562 496.371094 643.117188 L 515.945312 662.695312 L 553.972656 597.1875 C 556.605469 592.292969 563.382812 590.410156 568.652344 593.421875 C 573.546875 596.058594 575.429688 602.835938 572.417969 607.730469 L 528.371094 684.90625 C 527.617188 685.660156 527.242188 686.789062 526.113281 687.542969 C 521.96875 691.683594 515.195312 691.683594 511.050781 687.542969 L 481.3125 657.800781 Z M 481.3125 658.175781 " fill-opacity="1" fill-rule="nonzero"/><path fill="#ECB159" d="M 611.949219 657.425781 C 605.925781 657.425781 601.40625 652.90625 601.40625 646.882812 C 601.40625 640.859375 605.925781 635.964844 611.949219 635.964844 L 833.695312 635.964844 C 839.71875 635.964844 844.238281 640.859375 844.238281 646.882812 C 844.238281 652.90625 839.71875 657.425781 833.695312 657.425781 Z M 611.949219 657.425781 " fill-opacity="1" fill-rule="nonzero"/><path fill="#ECB159" d="M 661.269531 122.445312 C 716.234375 122.445312 760.660156 166.871094 760.660156 221.835938 C 760.660156 276.804688 716.234375 321.226562 661.269531 321.226562 C 606.300781 321.226562 561.878906 276.804688 561.878906 221.835938 C 561.878906 166.871094 606.300781 122.445312 661.269531 122.445312 Z M 661.269531 170.261719 C 677.078125 170.261719 690.257812 183.058594 690.257812 199.25 C 690.257812 215.0625 677.457031 228.238281 661.269531 228.238281 C 645.457031 228.238281 632.277344 215.4375 632.277344 199.25 C 632.277344 183.4375 645.078125 170.261719 661.269531 170.261719 Z M 641.3125 236.519531 L 681.222656 236.519531 C 700.046875 236.519531 715.105469 251.578125 715.105469 270.402344 L 715.105469 273.039062 L 607.429688 273.039062 L 607.429688 270.402344 C 607.429688 251.578125 622.492188 236.519531 641.3125 236.519531 Z M 641.3125 236.519531 " fill-opacity="1" fill-rule="evenodd"/><path fill="#ECB159" d="M 1046.40625 171.011719 L 1079.535156 228.238281 C 1082.171875 232.753906 1080.667969 238.402344 1076.148438 241.039062 L 882.636719 352.851562 C 880.753906 353.980469 878.871094 354.359375 876.613281 353.980469 L 824.285156 346.074219 C 821.273438 345.699219 819.011719 344.195312 817.507812 341.558594 C 816 338.921875 816 336.289062 816.753906 333.652344 L 835.953125 284.332031 C 836.707031 282.449219 838.214844 280.570312 840.09375 279.816406 L 1033.605469 168 C 1038.125 165.367188 1043.769531 166.871094 1046.40625 171.390625 Z M 1035.113281 187.203125 C 1036.242188 189.460938 1035.488281 192.097656 1033.605469 193.226562 L 860.800781 292.992188 C 858.542969 294.121094 855.90625 293.367188 854.777344 291.488281 C 853.648438 289.226562 854.402344 286.59375 856.285156 285.460938 L 1029.089844 185.695312 C 1031.347656 184.566406 1033.984375 185.320312 1035.113281 187.203125 Z M 1035.113281 187.203125 " fill-opacity="1" fill-rule="evenodd"/></svg>